<?xml version="1.0" encoding="utf-8"?>
<!-- Generator: Adobe Illustrator 15.0.2, SVG Export Plug-In  -->
<!DOCTYPE svg PUBLIC "-//W3C//DTD SVG 1.1//EN" "http://www.w3.org/Graphics/SVG/1.1/DTD/svg11.dtd" [
	<!ENTITY ns_flows "http://ns.adobe.com/Flows/1.0/">
]>
<svg version="1.1"
	 xmlns="http://www.w3.org/2000/svg" xmlns:xlink="http://www.w3.org/1999/xlink" xmlns:a="http://ns.adobe.com/AdobeSVGViewerExtensions/3.0/"
	 x="0px" y="0px" width="1000px" height="650px" viewBox="5563.858 1396.941 1000 650"
	 overflow="visible" enable-background="new 5563.858 1396.941 1000 650" xml:space="preserve">
<defs>
</defs>
<polygon fill="#6AC2EE" points="8033.942,6830.73 1203.213,0 1083.855,119.358 4597.937,3633.441 4656.358,3633.441 
	4656.358,3691.862 7914.083,6949.587 7912.983,6950.687 7913.487,6951.19 "/>
<polygon fill="#F48183" points="3632.358,4594.656 120.458,1082.757 0,1203.214 6830.732,8033.946 6951.188,7913.486 
	3695.142,4657.44 3632.358,4657.44 "/>
<polygon fill="#A7D16E" points="6158.358,2511.847 6158.358,2449.173 5335.897,1626.853 5304.512,1658.441 5304.487,1658.441 
	5304.574,1658.19 "/>
<polygon fill="#F48183" points="6158.819,2386.441 5367.349,1595.116 5335.901,1626.631 6158.358,2449.165 6158.358,2386.441 "/>
<polygon fill="#6AC2EE" points="5398.795,1563.669 5367.353,1595.039 6158.827,2386.441 6221.712,2386.441 "/>
<polygon fill="#6AC2EE" points="5273.115,1689.491 5241.668,1720.933 6158.358,2637.625 6158.358,2574.74 "/>
<polygon fill="#FCEA75" points="5304.456,1658.151 5273.116,1689.488 6158.358,2574.732 6158.358,2512.058 "/>
<polygon fill="#FCEA75" points="6158.358,2511.847 5304.561,1658.045 5304.453,1658.151 6158.358,2512.058 "/>
<polygon fill="#A7D16E" points="5461.567,1500.638 5430.123,1532.007 6284.629,2386.441 6347.515,2386.441 "/>
<polyline fill="#F48183" points="6409.358,2386.441 6410.408,2386.441 5493.143,1469.322 5493.093,1469.359 5493.012,1469.3 
	5461.571,1500.615 6347.523,2386.441 6409.358,2386.441 "/>
<polygon fill="#FCEA75" points="5430.243,1532.223 5398.799,1563.592 6221.72,2386.441 6284.606,2386.441 "/>
<polygon fill="#A7D16E" points="6410.358,2260.847 6410.358,2198.173 5587.897,1375.853 5556.512,1407.441 5556.487,1407.441 
	5556.574,1407.191 "/>
<polygon fill="#F48183" points="6410.819,2135.441 5619.349,1344.116 5587.901,1375.631 6410.358,2198.165 6410.358,2135.441 "/>
<polygon fill="#6AC2EE" points="5650.795,1312.669 5619.353,1344.039 6410.827,2135.441 6473.712,2135.441 "/>
<polygon fill="#6AC2EE" points="5525.115,1438.491 5493.668,1469.934 6410.358,2386.625 6410.358,2323.74 "/>
<polygon fill="#FCEA75" points="5556.456,1407.151 5525.116,1438.488 6410.358,2323.732 6410.358,2261.058 "/>
<polygon fill="#FCEA75" points="6409.358,2261.847 5555.561,1408.045 5555.453,1408.151 6409.358,2262.058 "/>
<polygon fill="#A7D16E" points="5713.567,1249.638 5682.123,1281.007 6536.629,2135.441 6599.515,2135.441 "/>
<polygon fill="#F48183" points="5744.856,1218.608 5745.143,1218.394 5745.012,1218.3 5713.571,1249.615 6599.523,2135.441 
	6661.833,2135.441 "/>
<polygon fill="#F48183" points="6660.833,2136.441 6661.408,2136.441 5744.143,1219.322 5743.856,1219.535 "/>
<polygon fill="#FCEA75" points="5682.243,1281.223 5650.799,1312.592 6473.72,2135.441 6536.606,2135.441 "/>
<polygon fill="#A7D16E" points="6661.358,2009.847 6661.358,1947.173 5838.897,1124.853 5807.512,1156.441 5807.487,1156.441 
	5807.574,1156.191 "/>
<polygon fill="#F48183" points="6661.819,1884.441 5870.349,1093.116 5838.901,1124.631 6661.358,1947.165 6661.358,1884.441 "/>
<polygon fill="#6AC2EE" points="5901.795,1061.669 5870.353,1093.039 6661.827,1884.441 6724.712,1884.441 "/>
<polygon fill="#6AC2EE" points="5776.115,1187.491 5744.668,1218.934 6661.358,2135.625 6661.358,2072.74 "/>
<polygon fill="#FCEA75" points="5807.456,1156.151 5776.116,1187.488 6661.358,2072.732 6661.358,2010.058 "/>
<polygon fill="#FCEA75" points="6661.358,2009.847 5807.561,1156.045 5807.453,1156.151 6661.358,2010.058 "/>
<polygon fill="#A7D16E" points="5964.567,998.638 5933.123,1030.007 6787.629,1884.441 6850.515,1884.441 "/>
<polyline fill="#F48183" points="6912.358,1884.441 6913.408,1884.441 5996.143,967.322 5996.093,967.359 5996.012,967.3 
	5964.571,998.615 6850.523,1884.441 6912.358,1884.441 "/>
<polygon fill="#FCEA75" points="5933.243,1030.223 5901.799,1061.592 6724.72,1884.441 6787.606,1884.441 "/>
<polygon fill="#A7D16E" points="6913.358,1758.847 6913.358,1696.173 6090.897,873.853 6059.512,905.441 6059.487,905.441 
	6059.574,905.191 "/>
<polygon fill="#F48183" points="6913.819,1633.441 6122.349,842.116 6090.901,873.631 6913.358,1696.165 6913.358,1633.441 "/>
<polygon fill="#6AC2EE" points="6153.795,810.669 6122.353,842.039 6913.827,1633.441 6976.712,1633.441 "/>
<polygon fill="#6AC2EE" points="6028.115,936.491 5996.668,967.934 6913.358,1884.625 6913.358,1821.74 "/>
<polygon fill="#FCEA75" points="6059.456,905.151 6028.116,936.488 6913.358,1821.732 6913.358,1759.058 "/>
<polygon fill="#FCEA75" points="6912.358,1759.847 6058.561,906.045 6058.453,906.151 6912.358,1760.058 "/>
<polygon fill="#A7D16E" points="6216.567,747.638 6185.123,779.007 7039.629,1633.441 7102.515,1633.441 "/>
<polygon fill="#F48183" points="6247.856,716.608 6248.143,716.394 6248.012,716.3 6216.571,747.615 7102.523,1633.441 
	7164.833,1633.441 "/>
<polygon fill="#F48183" points="7163.833,1634.441 7164.408,1634.441 6247.143,717.322 6246.856,717.535 "/>
<polygon fill="#FCEA75" points="6185.243,779.223 6153.799,810.592 6976.72,1633.441 7039.606,1633.441 "/>
<rect x="-993.46" y="4112.175" transform="matrix(-0.7071 -0.7071 0.7071 -0.7071 3581.5022 9878.21)" display="none" fill="#A7D16E" width="9660.11" height="170.353"/>
<rect x="-271.705" y="3390.419" transform="matrix(-0.7071 -0.7071 0.7071 -0.7071 5323.9722 9156.4531)" display="none" fill="#6AC2EE" width="9660.11" height="170.353"/>
<polygon display="none" fill="#F48183" points="601.934,601.285 7432.66,7432.012 7312.206,7552.473 481.473,721.74 "/>
<rect x="-752.512" y="3871.227" transform="matrix(-0.7071 -0.7071 0.7071 -0.7071 4163.1982 9637.2617)" display="none" fill="#6AC2EE" width="9660.107" height="170.353"/>
<rect x="-1354.46" y="4473.175" transform="matrix(-0.7071 -0.7071 0.7071 -0.7071 2709.9709 10239.21)" display="none" fill="#F48183" width="9660.11" height="170.353"/>
<polygon display="none" fill="#6AC2EE" points="240.934,962.285 7071.66,7793.012 6951.206,7913.473 120.473,1082.74 "/>
<rect x="-1113.512" y="4232.228" transform="matrix(-0.7071 -0.7071 0.7071 -0.7071 3291.667 9998.2617)" display="none" fill="#FCEA75" width="9660.107" height="170.353"/>
<polygon display="none" fill="#A7D16E" points="962.884,239.334 7793.61,7070.061 7673.155,7190.522 842.422,359.788 "/>
<rect x="-391.561" y="3509.277" transform="matrix(-0.7071 -0.7071 0.7071 -0.7071 5035.3164 9274.6035)" display="none" fill="#F48183" width="9660.105" height="170.353"/>
<polygon display="none" fill="#FCEA75" points="842.88,360.337 7673.608,7191.066 7553.153,7311.526 722.418,480.792 "/>
</svg>
