<?xml version="1.0" encoding="utf-8"?>
<!-- Generator: Adobe Illustrator 15.0.2, SVG Export Plug-In  -->
<!DOCTYPE svg PUBLIC "-//W3C//DTD SVG 1.1//EN" "http://www.w3.org/Graphics/SVG/1.1/DTD/svg11.dtd" [
	<!ENTITY ns_flows "http://ns.adobe.com/Flows/1.0/">
]>
<svg version="1.1"
	 xmlns="http://www.w3.org/2000/svg" xmlns:xlink="http://www.w3.org/1999/xlink" xmlns:a="http://ns.adobe.com/AdobeSVGViewerExtensions/3.0/"
	 x="0px" y="0px" width="300px" height="300px" viewBox="-28 -27 300 300"
	 overflow="visible" enable-background="new -28 -27 300 300" xml:space="preserve">
<defs>
</defs>
<path fill="#68A2D9" d="M242.72,28.088c-1.873-14.537-13.257-26.143-27.86-27.86C213.629,0.083,212.377,0,211.104,0h-21.927
	l15.374,15.374c11.773,1.937,20.955,11.28,23.01,23.01L243,53.823V32.318C243,30.885,242.898,29.475,242.72,28.088z"/>
<polygon fill="#68A2D9" points="192.863,15 177.863,0 152.407,0 167.407,15 "/>
<polygon fill="#68A2D9" points="228,75.593 243,90.593 243,65.137 228,50.137 "/>
<polygon fill="#68A2D9" points="157.508,15 142.508,0 117.052,0 132.052,15 "/>
<polygon fill="#68A2D9" points="228,110.948 243,125.948 243,100.492 228,85.492 "/>
<polygon fill="#68A2D9" points="228,147.718 243,162.718 243,137.262 228,122.262 "/>
<polygon fill="#68A2D9" points="120.738,15 105.738,0 80.282,0 95.282,15 "/>
<polygon fill="#68A2D9" points="83.968,15 68.968,0 43.513,0 58.513,15 "/>
<polygon fill="#68A2D9" points="228,184.487 243,199.487 243,174.031 228,159.031 "/>
<path fill="#68A2D9" d="M44.933,15h3.681L33.624,0.01C26.66,0.096,19.962,2.4,14.4,6.242l13.865,13.865
	C33.142,16.897,38.942,15,44.933,15z"/>
<path fill="#68A2D9" d="M228,197.727c0,6.062-1.895,12-5.124,16.992l13.872,13.872c3.795-5.591,6.072-12.31,6.232-19.224
	L228,194.387V197.727z"/>
<path fill="#68A2D9" d="M15,43.357c0-6.813,2.761-13.107,7.176-18.025L8.358,11.515c-4.372,4.797-7.351,10.773-8.143,17.313
	L15,43.612V43.357z"/>
<path fill="#68A2D9" d="M200.012,228h-0.624l14.825,14.824c6.586-0.727,12.547-3.724,17.312-8.142L217.7,220.856
	C212.898,225.24,206.757,228,200.012,228z"/>
<polygon fill="#68A2D9" points="164.032,228 179.032,243 204.488,243 189.488,228 "/>
<polygon fill="#68A2D9" points="15,53.512 0,38.512 0,63.968 15,78.968 "/>
<polygon fill="#68A2D9" points="127.263,228 142.263,243 167.719,243 152.719,228 "/>
<polygon fill="#68A2D9" points="15,90.281 0,75.281 0,100.737 15,115.737 "/>
<polygon fill="#68A2D9" points="90.493,228 105.493,243 130.949,243 115.949,228 "/>
<polygon fill="#68A2D9" points="15,127.051 0,112.051 0,137.507 15,152.507 "/>
<polygon fill="#68A2D9" points="55.138,228 70.138,243 95.594,243 80.594,228 "/>
<polygon fill="#68A2D9" points="15,162.406 0,147.406 0,172.862 15,187.862 "/>
<path fill="#68A2D9" d="M43.791,227.967c-14.651-0.673-27.889-14.158-28.746-28.746L0,184.176v24.414
	c0,0.358,0.017,0.715,0.03,1.072c0.628,17.103,16.131,32.914,33.318,33.318c0.224,0.005,0.448,0.02,0.672,0.02h24.803
	L43.791,227.967z"/>
</svg>
