<?xml version="1.0" encoding="utf-8"?>
<!-- Generator: Adobe Illustrator 15.0.2, SVG Export Plug-In  -->
<!DOCTYPE svg PUBLIC "-//W3C//DTD SVG 1.1//EN" "http://www.w3.org/Graphics/SVG/1.1/DTD/svg11.dtd" [
	<!ENTITY ns_flows "http://ns.adobe.com/Flows/1.0/">
]>
<svg version="1.1"
	 xmlns="http://www.w3.org/2000/svg" xmlns:xlink="http://www.w3.org/1999/xlink" xmlns:a="http://ns.adobe.com/AdobeSVGViewerExtensions/3.0/"
	 x="0px" y="0px" width="1024px" height="1024px" viewBox="5720.358 3633.441 1024 1024"
	 overflow="visible" enable-background="new 5720.358 3633.441 1024 1024" xml:space="preserve">
<defs>
</defs>
<rect x="-993.46" y="4112.175" transform="matrix(-0.7071 -0.7071 0.7071 -0.7071 3581.5022 9878.21)" display="none" fill="#A7D16E" width="9660.11" height="170.353"/>
<rect x="-271.705" y="3390.419" transform="matrix(-0.7071 -0.7071 0.7071 -0.7071 5323.9722 9156.4531)" display="none" fill="#6AC2EE" width="9660.11" height="170.353"/>
<polygon display="none" fill="#F48183" points="601.934,601.285 7432.66,7432.012 7312.206,7552.473 481.473,721.74 "/>
<rect x="-752.512" y="3871.227" transform="matrix(-0.7071 -0.7071 0.7071 -0.7071 4163.1982 9637.2617)" display="none" fill="#6AC2EE" width="9660.107" height="170.353"/>
<rect x="-1354.46" y="4473.175" transform="matrix(-0.7071 -0.7071 0.7071 -0.7071 2709.9709 10239.21)" display="none" fill="#F48183" width="9660.11" height="170.353"/>
<polygon display="none" fill="#6AC2EE" points="240.934,962.285 7071.66,7793.012 6951.206,7913.473 120.473,1082.74 "/>
<rect x="-1113.512" y="4232.228" transform="matrix(-0.7071 -0.7071 0.7071 -0.7071 3291.667 9998.2617)" display="none" fill="#FCEA75" width="9660.107" height="170.353"/>
<polygon display="none" fill="#A7D16E" points="962.884,239.334 7793.61,7070.061 7673.155,7190.522 842.422,359.788 "/>
<rect x="-391.561" y="3509.277" transform="matrix(-0.7071 -0.7071 0.7071 -0.7071 5035.3164 9274.6035)" display="none" fill="#F48183" width="9660.105" height="170.353"/>
<polygon display="none" fill="#FCEA75" points="842.88,360.337 7673.608,7191.066 7553.153,7311.526 722.418,480.792 "/>
<g>
	<polygon fill="#FFFFFF" points="6661.29,3959.987 6504.311,3803.009 6136.858,4170.463 5968.196,4001.801 5811.217,4158.778 
		6136.709,4484.27 6136.858,4484.12 6137.006,4484.27 	"/>
	<g>
		<path d="M6666.565,3954.654c-33.816-33.817-67.634-67.634-101.451-101.451c-18.509-18.509-37.018-37.018-55.527-55.527
			c-2.899-2.9-7.73-2.821-10.607,0.057c-20.029,20.029-40.059,40.058-60.088,60.087c-43.567,43.568-87.136,87.137-130.704,130.705
			c-42.329,42.33-84.658,84.659-126.987,126.989c-16.559,16.558-33.116,33.116-49.674,49.674c3.535-0.019,7.071-0.038,10.607-0.057
			c-33.034-33.035-66.068-66.069-99.104-99.104c-23.186-23.187-46.372-46.373-69.559-69.559c-2.899-2.9-7.73-2.821-10.607,0.057
			c-33.817,33.817-67.635,67.634-101.451,101.451c-18.51,18.509-37.019,37.018-55.527,55.526c-2.9,2.9-2.821,7.73,0.057,10.608
			c22.006,22.006,44.012,44.012,66.018,66.018c44.973,44.973,89.944,89.944,134.917,134.917
			c36.37,36.369,72.739,72.739,109.109,109.108c5.149,5.149,10.299,10.299,15.448,15.448c2.896,2.896,7.734,2.826,10.607-0.057
			c0.05-0.05,0.1-0.1,0.148-0.149c-3.535,0.02-7.071,0.038-10.607,0.058c0.049,0.05,0.099,0.099,0.148,0.148
			c2.895,2.904,7.733,2.817,10.607-0.057c14.901-14.901,29.803-29.802,44.704-44.703c36.591-36.592,73.183-73.183,109.773-109.773
			c46.112-46.113,92.226-92.226,138.338-138.339c43.467-43.466,86.933-86.932,130.399-130.398
			c28.65-28.651,57.303-57.303,85.953-85.954c5.039-5.039,10.077-10.077,15.115-15.116c6.836-6.835-3.812-17.403-10.664-10.551
			c-14.901,14.901-29.803,29.802-44.704,44.703c-36.591,36.591-73.183,73.182-109.773,109.773
			c-46.112,46.113-92.226,92.226-138.338,138.339c-43.467,43.466-86.933,86.932-130.399,130.398
			c-28.65,28.651-57.303,57.303-85.953,85.953c-5.039,5.039-10.077,10.077-15.115,15.115c3.535-0.019,7.071-0.037,10.607-0.057
			c-0.049-0.05-0.099-0.099-0.148-0.148c-2.892-2.901-7.738-2.822-10.607,0.057c-0.05,0.05-0.1,0.1-0.148,0.148
			c3.535-0.019,7.071-0.037,10.607-0.057c-22.006-22.006-44.012-44.012-66.018-66.018c-44.973-44.972-89.944-89.944-134.917-134.916
			c-36.37-36.37-72.739-72.739-109.109-109.109c-5.149-5.149-10.299-10.299-15.448-15.448c0.02,3.536,0.038,7.072,0.057,10.608
			c33.817-33.816,67.635-67.634,101.451-101.45c18.51-18.509,37.019-37.018,55.527-55.527c-3.535,0.019-7.071,0.038-10.607,0.057
			c33.034,33.035,66.068,66.069,99.104,99.103c23.186,23.187,46.372,46.373,69.559,69.56c2.899,2.899,7.73,2.821,10.607-0.058
			c20.029-20.028,40.059-40.058,60.088-60.087c43.567-43.568,87.136-87.136,130.704-130.704
			c42.329-42.33,84.658-84.659,126.987-126.988c16.559-16.558,33.116-33.116,49.674-49.674c-3.535,0.019-7.071,0.038-10.607,0.057
			c33.816,33.817,67.634,67.634,101.451,101.451c18.509,18.509,37.018,37.018,55.527,55.527
			C6662.85,3972.155,6673.417,3961.507,6666.565,3954.654z"/>
	</g>
</g>
<polygon fill="#F48183" points="6203.983,3633.441 6744.358,4173.816 6744.358,4173.725 6204.074,3633.441 "/>
<polygon fill="#F48183" points="5722.088,3633.441 6744.358,4655.71 6744.358,4655.679 5722.12,3633.441 "/>
<polygon fill="#F48183" points="6444.991,3633.441 6744.358,3932.808 6744.358,3932.778 6445.021,3633.441 "/>
<polygon fill="#F48183" points="5963.036,3633.441 6744.358,4414.763 6744.358,4414.731 5963.067,3633.441 "/>
<polygon fill="#F48183" points="5720.358,3872.656 6505.142,4657.44 6505.173,4657.44 5720.358,3872.625 "/>
<polygon fill="#F48183" points="5720.358,4594.656 5783.142,4657.44 5783.173,4657.44 5720.358,4594.625 "/>
<polygon fill="#F48183" points="5720.358,4353.71 6024.088,4657.44 6024.12,4657.44 5720.358,4353.679 "/>
<polygon fill="#A7D16E" points="5720.358,4112.763 6265.036,4657.44 6505.142,4657.44 5720.358,3872.656 "/>
<polygon fill="#6AC2EE" points="6744.358,3633.441 6685.936,3633.441 6744.358,3691.862 "/>
<polygon fill="#F48183" points="5720.358,3633.441 5720.358,3872.625 6505.173,4657.44 6744.358,4657.44 6744.358,4655.71 
	5722.088,3633.441 "/>
<polygon fill="#6AC2EE" points="5722.12,3633.441 6744.358,4655.679 6744.358,4414.763 5963.036,3633.441 "/>
<polygon fill="#F48183" points="5720.358,4657.44 5783.142,4657.44 5720.358,4594.656 "/>
<polygon fill="#6AC2EE" points="5720.358,4594.625 5783.173,4657.44 6024.088,4657.44 5720.358,4353.71 "/>
<polygon fill="#FCEA75" points="5720.358,4113.572 5720.358,4353.679 6024.12,4657.44 6264.226,4657.44 "/>
<polygon fill="#FCEA75" points="6264.226,4657.44 6265.036,4657.44 5720.358,4112.763 5720.358,4113.572 "/>
<polygon fill="#A7D16E" points="6204.074,3633.441 6744.358,4173.725 6744.358,3932.808 6444.991,3633.441 "/>
<polygon fill="#F48183" points="6683.737,3633.441 6445.021,3633.441 6744.358,3932.778 6744.358,3694.061 "/>
<polygon fill="#F48183" points="6744.358,3694.061 6744.358,3691.862 6685.936,3633.441 6683.737,3633.441 "/>
<polygon fill="#FCEA75" points="5963.067,3633.441 6744.358,4414.731 6744.358,4173.816 6203.983,3633.441 "/>
<g>
	<polygon fill="#FFFFFF" points="6664.29,3948.987 6507.311,3792.009 6139.858,4159.463 5971.196,3990.801 5814.217,4147.778 
		6139.709,4473.27 6139.858,4473.12 6140.006,4473.27 	"/>
</g>
</svg>
