<?xml version="1.0" encoding="utf-8"?>
<!-- Generator: Adobe Illustrator 15.0.2, SVG Export Plug-In  -->
<!DOCTYPE svg PUBLIC "-//W3C//DTD SVG 1.1//EN" "http://www.w3.org/Graphics/SVG/1.1/DTD/svg11.dtd" [
	<!ENTITY ns_flows "http://ns.adobe.com/Flows/1.0/">
]>
<svg version="1.1"
	 xmlns="http://www.w3.org/2000/svg" xmlns:xlink="http://www.w3.org/1999/xlink" xmlns:a="http://ns.adobe.com/AdobeSVGViewerExtensions/3.0/"
	 x="0px" y="0px" width="300px" height="300px" viewBox="6772.358 2561.441 300 300"
	 overflow="visible" enable-background="new 6772.358 2561.441 300 300" xml:space="preserve">
<defs>
</defs>
<polygon fill="#6AC2EE" points="8033.942,6830.73 1203.213,0 1083.855,119.358 4597.937,3633.441 4656.358,3633.441 
	4656.358,3691.862 7914.083,6949.587 7912.983,6950.687 7913.487,6951.19 "/>
<polygon fill="#F48183" points="3632.358,4594.656 120.458,1082.757 0,1203.214 6830.732,8033.946 6951.188,7913.486 
	3695.142,4657.44 3632.358,4657.44 "/>
<rect x="-993.46" y="4112.175" transform="matrix(-0.7071 -0.7071 0.7071 -0.7071 3581.5022 9878.21)" display="none" fill="#A7D16E" width="9660.11" height="170.353"/>
<rect x="-271.705" y="3390.419" transform="matrix(-0.7071 -0.7071 0.7071 -0.7071 5323.9722 9156.4531)" display="none" fill="#6AC2EE" width="9660.11" height="170.353"/>
<polygon display="none" fill="#F48183" points="601.934,601.285 7432.66,7432.012 7312.206,7552.473 481.473,721.74 "/>
<rect x="-752.512" y="3871.227" transform="matrix(-0.7071 -0.7071 0.7071 -0.7071 4163.1982 9637.2617)" display="none" fill="#6AC2EE" width="9660.107" height="170.353"/>
<rect x="-1354.46" y="4473.175" transform="matrix(-0.7071 -0.7071 0.7071 -0.7071 2709.9709 10239.21)" display="none" fill="#F48183" width="9660.11" height="170.353"/>
<polygon display="none" fill="#6AC2EE" points="240.934,962.285 7071.66,7793.012 6951.206,7913.473 120.473,1082.74 "/>
<rect x="-1113.512" y="4232.228" transform="matrix(-0.7071 -0.7071 0.7071 -0.7071 3291.667 9998.2617)" display="none" fill="#FCEA75" width="9660.107" height="170.353"/>
<polygon display="none" fill="#A7D16E" points="962.884,239.334 7793.61,7070.061 7673.155,7190.522 842.422,359.788 "/>
<rect x="-391.561" y="3509.277" transform="matrix(-0.7071 -0.7071 0.7071 -0.7071 5035.3164 9274.6035)" display="none" fill="#F48183" width="9660.105" height="170.353"/>
<polygon display="none" fill="#FCEA75" points="842.88,360.337 7673.608,7191.066 7553.153,7311.526 722.418,480.792 "/>
<g>
	<polygon fill="#FFFFFF" points="7048.431,2654.031 7002.518,2607.969 6895.049,2715.79 6845.72,2666.3 6799.809,2712.361 
		6895.007,2807.868 6895.049,2807.825 6895.093,2807.868 	"/>
</g>
</svg>
