<?xml version="1.0" encoding="utf-8"?>
<!-- Generator: Adobe Illustrator 15.0.2, SVG Export Plug-In  -->
<!DOCTYPE svg PUBLIC "-//W3C//DTD SVG 1.1//EN" "http://www.w3.org/Graphics/SVG/1.1/DTD/svg11.dtd" [
	<!ENTITY ns_flows "http://ns.adobe.com/Flows/1.0/">
]>
<svg version="1.1"
	 xmlns="http://www.w3.org/2000/svg" xmlns:xlink="http://www.w3.org/1999/xlink" xmlns:a="http://ns.adobe.com/AdobeSVGViewerExtensions/3.0/"
	 x="0px" y="0px" width="300px" height="180px" viewBox="261.54 389.539 300 180"
	 overflow="visible" enable-background="new 261.54 389.539 300 180" xml:space="preserve">
<defs>
</defs>
<g>
	<defs>
		<path id="SVGID_1_" d="M561.54,544.539c0,13.807-11.193,25-25,25h-250c-13.807,0-25-11.193-25-25v-130c0-13.807,11.193-25,25-25
			h250c13.807,0,25,11.193,25,25V544.539z"/>
	</defs>
	<clipPath id="SVGID_2_">
		<use xlink:href="#SVGID_1_"  overflow="visible"/>
	</clipPath>
	<g clip-path="url(#SVGID_2_)">
		
			<rect x="265.503" y="573.121" transform="matrix(0.7071 -0.7071 0.7071 0.7071 -255.5745 543.2313)" fill="#88BAE4" width="524.896" height="14.001"/>
		
			<rect x="255.604" y="563.223" transform="matrix(0.7071 -0.7071 0.7071 0.7071 -251.4745 533.3317)" fill="#E04661" width="524.895" height="13.999"/>
		
			<rect x="245.704" y="553.322" transform="matrix(0.7071 -0.7071 0.7071 0.7071 -247.3735 523.4325)" fill="#FFFFFF" width="524.896" height="14.001"/>
		
			<rect x="235.805" y="543.423" transform="matrix(0.7071 -0.7071 0.7071 0.7071 -243.2732 513.5327)" fill="#88BAE4" width="524.895" height="14"/>
		
			<rect x="225.905" y="533.523" transform="matrix(0.7071 -0.7071 0.7071 0.7071 -239.1724 503.6331)" fill="#E04661" width="524.896" height="14"/>
		
			<rect x="216.005" y="523.624" transform="matrix(0.7071 -0.7071 0.7071 0.7071 -235.0723 493.7339)" fill="#FFFFFF" width="524.895" height="14.001"/>
		
			<rect x="206.106" y="513.725" transform="matrix(0.7071 -0.7071 0.7071 0.7071 -230.9716 483.833)" fill="#88BAE4" width="524.897" height="14"/>
		
			<rect x="196.206" y="503.825" transform="matrix(0.7071 -0.7071 0.7071 0.7071 -226.8713 473.9342)" fill="#E04661" width="524.896" height="14"/>
		
			<rect x="186.307" y="493.926" transform="matrix(0.7071 -0.7071 0.7071 0.7071 -222.771 464.0353)" fill="#FFFFFF" width="524.895" height="14"/>
		
			<rect x="176.407" y="484.025" transform="matrix(0.7071 -0.7071 0.7071 0.7071 -218.6698 454.1356)" fill="#88BAE4" width="524.896" height="14.001"/>
		
			<rect x="166.508" y="474.127" transform="matrix(0.7071 -0.7071 0.7071 0.7071 -214.5698 444.236)" fill="#E04661" width="524.895" height="13.999"/>
		
			<rect x="156.608" y="464.227" transform="matrix(0.7071 -0.7071 0.7071 0.7071 -210.4689 434.3368)" fill="#FFFFFF" width="524.896" height="14.001"/>
		
			<rect x="146.709" y="454.328" transform="matrix(0.7071 -0.7071 0.7071 0.7071 -206.3689 424.4371)" fill="#88BAE4" width="524.895" height="13.999"/>
		
			<rect x="136.809" y="444.428" transform="matrix(0.7071 -0.7071 0.7071 0.7071 -202.2679 414.5379)" fill="#E04661" width="524.896" height="14.001"/>
		
			<rect x="126.91" y="434.529" transform="matrix(0.7071 -0.7071 0.7071 0.7071 -198.1676 404.6382)" fill="#FFFFFF" width="524.895" height="14"/>
		
			<rect x="117.011" y="424.629" transform="matrix(0.7071 -0.7071 0.7071 0.7071 -194.067 394.7383)" fill="#88BAE4" width="524.896" height="14"/>
		
			<rect x="107.111" y="414.73" transform="matrix(0.7071 -0.7071 0.7071 0.7071 -189.9666 384.8396)" fill="#E04661" width="524.895" height="14"/>
		
			<rect x="97.212" y="404.83" transform="matrix(0.7071 -0.7071 0.7071 0.7071 -185.8659 374.9398)" fill="#FFFFFF" width="524.896" height="14"/>
		
			<rect x="87.312" y="394.93" transform="matrix(0.7071 -0.7071 0.7071 0.7071 -181.7657 365.0405)" fill="#88BAE4" width="524.895" height="14.001"/>
		
			<rect x="77.412" y="385.031" transform="matrix(0.7071 -0.7071 0.7071 0.7071 -177.6654 355.1407)" fill="#E04661" width="524.895" height="14"/>
		
			<rect x="67.513" y="375.131" transform="matrix(0.7071 -0.7071 0.7071 0.7071 -173.5644 345.2408)" fill="#FFFFFF" width="524.896" height="14.001"/>
		
			<rect x="57.613" y="365.233" transform="matrix(0.7071 -0.7071 0.7071 0.7071 -169.4642 335.3414)" fill="#88BAE4" width="524.895" height="13.999"/>
		
			<rect x="47.714" y="355.332" transform="matrix(0.7071 -0.7071 0.7071 0.7071 -165.3633 325.4422)" fill="#E04661" width="524.896" height="14.001"/>
		
			<rect x="37.815" y="345.434" transform="matrix(0.7071 -0.7071 0.7071 0.7071 -161.2633 315.5426)" fill="#FFFFFF" width="524.895" height="13.999"/>
	</g>
</g>
<rect x="-5.616" y="260.051" transform="matrix(0.7071 -0.7071 0.7071 0.7071 -110.6161 267.0508)" fill="#21469D" width="545.333" height="14"/>
<rect x="-15.515" y="250.151" transform="matrix(0.7071 -0.7071 0.7071 0.7071 -106.5156 257.1512)" fill="#D1253A" width="545.333" height="14"/>
<rect x="-25.415" y="240.252" transform="matrix(0.7071 -0.7071 0.7071 0.7071 -102.415 247.2517)" fill="#FFFFFF" width="545.333" height="14"/>
<rect x="-35.314" y="230.352" transform="matrix(0.7071 -0.7071 0.7071 0.7071 -98.3145 237.3523)" fill="#21469D" width="545.333" height="14"/>
<rect x="-45.214" y="220.453" transform="matrix(0.7071 -0.7071 0.7071 0.7071 -94.2139 227.4528)" fill="#D1253A" width="545.333" height="14"/>
<rect x="-55.113" y="210.553" transform="matrix(0.7071 -0.7071 0.7071 0.7071 -90.1134 217.5532)" fill="#FFFFFF" width="545.333" height="14"/>
<rect x="-65.013" y="200.654" transform="matrix(0.7071 -0.7071 0.7071 0.7071 -86.013 207.6538)" fill="#21469D" width="545.333" height="14"/>
<rect x="-74.912" y="190.754" transform="matrix(0.7071 -0.7071 0.7071 0.7071 -81.9126 197.7542)" fill="#D1253A" width="545.333" height="14"/>
<g>
	<path fill="#FFFFFF" d="M553.738,538.66c0,12.635-10.591,22.879-23.653,22.879H293.559c-13.063,0-23.653-10.244-23.653-22.879
		V419.688c0-12.636,10.59-22.88,23.653-22.88h236.526c13.062,0,23.653,10.244,23.653,22.88V538.66z"/>
</g>
</svg>
