<?xml version="1.0" encoding="utf-8"?>
<!-- Generator: Adobe Illustrator 15.0.2, SVG Export Plug-In  -->
<!DOCTYPE svg PUBLIC "-//W3C//DTD SVG 1.1//EN" "http://www.w3.org/Graphics/SVG/1.1/DTD/svg11.dtd" [
	<!ENTITY ns_flows "http://ns.adobe.com/Flows/1.0/">
]>
<svg version="1.1"
	 xmlns="http://www.w3.org/2000/svg" xmlns:xlink="http://www.w3.org/1999/xlink" xmlns:a="http://ns.adobe.com/AdobeSVGViewerExtensions/3.0/"
	 x="0px" y="0px" width="41px" height="31px" viewBox="0 0 41 31" overflow="visible" enable-background="new 0 0 41 31"
	 xml:space="preserve">
<defs>
</defs>
<path fill="#333333" d="M41,3.5C41,5.433,39.433,7,37.5,7h-34C1.567,7,0,5.433,0,3.5l0,0C0,1.567,1.567,0,3.5,0h34
	C39.433,0,41,1.567,41,3.5L41,3.5z"/>
<path fill="#333333" d="M41,27.5c0,1.934-1.567,3.5-3.5,3.5h-34C1.567,31,0,29.434,0,27.5l0,0C0,25.566,1.567,24,3.5,24h34
	C39.433,24,41,25.566,41,27.5L41,27.5z"/>
<path fill="#333333" d="M41,15.5c0,1.934-1.567,3.5-3.5,3.5h-34C1.567,19,0,17.434,0,15.5l0,0C0,13.566,1.567,12,3.5,12h34
	C39.433,12,41,13.566,41,15.5L41,15.5z"/>
</svg>
